<?xml version="1.0" encoding="UTF-8" standalone="no"?>
<!DOCTYPE svg PUBLIC "-//W3C//DTD SVG 1.1//EN"
 "http://www.w3.org/Graphics/SVG/1.1/DTD/svg11.dtd">
<!-- Generated by graphviz version 12.2.1 (0)
 -->
<!-- Pages: 1 -->
<svg width="882pt" height="476pt"
 viewBox="0.00 0.00 882.37 476.00" xmlns="http://www.w3.org/2000/svg" xmlns:xlink="http://www.w3.org/1999/xlink">
<g id="graph0" class="graph" transform="scale(1 1) rotate(0) translate(4 472)">
<polygon fill="white" stroke="none" points="-4,4 -4,-472 878.37,-472 878.37,4 -4,4"/>
<!-- 0 -->
<g id="node1" class="node">
<title>0</title>
<polygon fill="none" stroke="black" points="418.88,-396 345.12,-396 345.12,-360 418.88,-360 418.88,-396"/>
<text text-anchor="middle" x="382" y="-373.32" font-family="Times,serif" font-size="14.00">lwk_app</text>
</g>
<!-- 4 -->
<g id="node5" class="node">
<title>4</title>
<polygon fill="none" stroke="black" points="493.75,-180 416.25,-180 416.25,-144 493.75,-144 493.75,-180"/>
<text text-anchor="middle" x="455" y="-157.32" font-family="Times,serif" font-size="14.00">lwk_jade</text>
</g>
<!-- 0&#45;&gt;4 -->
<g id="edge2" class="edge">
<title>0&#45;&gt;4</title>
<path fill="none" stroke="black" d="M384.93,-359.69C388.22,-341.58 394.15,-312.42 402,-288 413.06,-253.6 429.88,-215.57 441.6,-190.6"/>
<polygon fill="black" stroke="black" points="444.65,-192.32 445.78,-181.79 438.33,-189.32 444.65,-192.32"/>
</g>
<!-- 6 -->
<g id="node7" class="node">
<title>6</title>
<polygon fill="none" stroke="black" points="689.25,-252 596.75,-252 596.75,-216 689.25,-216 689.25,-252"/>
<text text-anchor="middle" x="643" y="-229.32" font-family="Times,serif" font-size="14.00">lwk_signer</text>
</g>
<!-- 0&#45;&gt;6 -->
<g id="edge4" class="edge">
<title>0&#45;&gt;6</title>
<path fill="none" stroke="black" d="M419.33,-363.97C445.59,-354.25 481.22,-339.94 511,-324 547.03,-304.71 585.47,-278.02 611.52,-258.91"/>
<polygon fill="black" stroke="black" points="613.35,-261.9 619.31,-253.14 609.19,-256.27 613.35,-261.9"/>
</g>
<!-- 7 -->
<g id="node8" class="node">
<title>7</title>
<polygon fill="none" stroke="black" points="353.88,-324 244.12,-324 244.12,-288 353.88,-288 353.88,-324"/>
<text text-anchor="middle" x="299" y="-301.32" font-family="Times,serif" font-size="14.00">lwk_tiny_jrpc</text>
</g>
<!-- 0&#45;&gt;7 -->
<g id="edge5" class="edge">
<title>0&#45;&gt;7</title>
<path fill="none" stroke="black" d="M361.48,-359.7C351.41,-351.2 339.09,-340.81 328.07,-331.51"/>
<polygon fill="black" stroke="black" points="330.63,-329.09 320.73,-325.32 326.11,-334.45 330.63,-329.09"/>
</g>
<!-- 8 -->
<g id="node9" class="node">
<title>8</title>
<polygon fill="none" stroke="black" points="501.5,-324 410.5,-324 410.5,-288 501.5,-288 501.5,-324"/>
<text text-anchor="middle" x="456" y="-301.32" font-family="Times,serif" font-size="14.00">lwk_wollet</text>
</g>
<!-- 0&#45;&gt;8 -->
<g id="edge6" class="edge">
<title>0&#45;&gt;8</title>
<path fill="none" stroke="black" d="M400.29,-359.7C409.1,-351.37 419.82,-341.22 429.5,-332.07"/>
<polygon fill="black" stroke="black" points="431.7,-334.8 436.56,-325.39 426.89,-329.72 431.7,-334.8"/>
</g>
<!-- 10 -->
<g id="node11" class="node">
<title>10</title>
<polygon fill="none" stroke="black" points="770.75,-36 663.25,-36 663.25,0 770.75,0 770.75,-36"/>
<text text-anchor="middle" x="717" y="-13.32" font-family="Times,serif" font-size="14.00">lwk_common</text>
</g>
<!-- 0&#45;&gt;10 -->
<g id="edge1" class="edge">
<title>0&#45;&gt;10</title>
<path fill="none" stroke="black" d="M419.19,-375.07C488.09,-369.26 634.37,-345.89 698,-252 740.42,-189.42 731.16,-94.54 722.98,-47.5"/>
<polygon fill="black" stroke="black" points="726.45,-47.04 721.18,-37.85 719.57,-48.32 726.45,-47.04"/>
</g>
<!-- 11 -->
<g id="node12" class="node">
<title>11</title>
<polygon fill="none" stroke="black" points="187.5,-324 66.5,-324 66.5,-288 187.5,-288 187.5,-324"/>
<text text-anchor="middle" x="127" y="-301.32" font-family="Times,serif" font-size="14.00">lwk_rpc_model</text>
</g>
<!-- 0&#45;&gt;11 -->
<g id="edge3" class="edge">
<title>0&#45;&gt;11</title>
<path fill="none" stroke="black" d="M344.65,-366.75C306.4,-356.25 246,-339.67 198.52,-326.63"/>
<polygon fill="black" stroke="black" points="199.71,-323.33 189.14,-324.06 197.85,-330.08 199.71,-323.33"/>
</g>
<!-- 1 -->
<g id="node2" class="node">
<title>1</title>
<polygon fill="none" stroke="black" points="681.5,-468 572.5,-468 572.5,-432 681.5,-432 681.5,-468"/>
<text text-anchor="middle" x="627" y="-445.32" font-family="Times,serif" font-size="14.00">lwk_bindings</text>
</g>
<!-- 1&#45;&gt;6 -->
<g id="edge9" class="edge">
<title>1&#45;&gt;6</title>
<path fill="none" stroke="black" d="M628.28,-431.85C631.03,-395.14 637.49,-308.66 640.87,-263.53"/>
<polygon fill="black" stroke="black" points="644.34,-263.97 641.6,-253.74 637.36,-263.45 644.34,-263.97"/>
</g>
<!-- 1&#45;&gt;8 -->
<g id="edge11" class="edge">
<title>1&#45;&gt;8</title>
<path fill="none" stroke="black" d="M606.03,-431.59C575.82,-406.5 519.92,-360.08 485.54,-331.53"/>
<polygon fill="black" stroke="black" points="487.97,-328.99 478.04,-325.3 483.49,-334.38 487.97,-328.99"/>
</g>
<!-- 1&#45;&gt;10 -->
<g id="edge8" class="edge">
<title>1&#45;&gt;10</title>
<path fill="none" stroke="black" d="M681.78,-434.29C684.89,-433.5 687.98,-432.74 691,-432 762.66,-414.53 801.06,-448.37 853,-396 881.48,-367.28 872,-347.45 872,-307 872,-307 872,-307 872,-161 872,-115.19 853.25,-103.52 820,-72 806.95,-59.63 790.45,-49.44 774.5,-41.41"/>
<polygon fill="black" stroke="black" points="776.04,-38.26 765.51,-37.09 773.01,-44.57 776.04,-38.26"/>
</g>
<!-- 12 -->
<g id="node13" class="node">
<title>12</title>
<polygon fill="none" stroke="black" points="418,-108 312,-108 312,-72 418,-72 418,-108"/>
<text text-anchor="middle" x="365" y="-85.33" font-family="Times,serif" font-size="14.00">lwk_test_util</text>
</g>
<!-- 1&#45;&gt;12 -->
<g id="edge10" class="edge">
<title>1&#45;&gt;12</title>
<path fill="none" stroke="black" d="M572.14,-446.15C512.08,-441.42 413.93,-428.92 336,-396 274.83,-370.16 216,-373.4 216,-307 216,-307 216,-307 216,-233 216,-177.26 271.33,-136.72 314.55,-113.56"/>
<polygon fill="black" stroke="black" points="316.06,-116.72 323.33,-109.02 312.84,-110.5 316.06,-116.72"/>
</g>
<!-- 14 -->
<g id="node15" class="node">
<title>14</title>
<polygon fill="none" stroke="black" points="844.38,-396 761.62,-396 761.62,-360 844.38,-360 844.38,-396"/>
<text text-anchor="middle" x="803" y="-373.32" font-family="Times,serif" font-size="14.00">lwk_boltz</text>
</g>
<!-- 1&#45;&gt;14 -->
<g id="edge7" class="edge">
<title>1&#45;&gt;14</title>
<path fill="none" stroke="black" stroke-dasharray="1,5" d="M670.96,-431.52C695.19,-421.88 725.43,-409.85 750.85,-399.74"/>
<polygon fill="black" stroke="black" points="752.01,-403.05 760.01,-396.1 749.42,-396.54 752.01,-403.05"/>
</g>
<!-- 2 -->
<g id="node3" class="node">
<title>2</title>
<polygon fill="none" stroke="black" points="102,-468 38,-468 38,-432 102,-432 102,-468"/>
<text text-anchor="middle" x="70" y="-445.32" font-family="Times,serif" font-size="14.00">lwk_cli</text>
</g>
<!-- 2&#45;&gt;0 -->
<g id="edge12" class="edge">
<title>2&#45;&gt;0</title>
<path fill="none" stroke="black" d="M102.21,-441.77C157.15,-429.45 269.23,-404.3 333.61,-389.86"/>
<polygon fill="black" stroke="black" points="334.2,-393.31 343.19,-387.71 332.67,-386.48 334.2,-393.31"/>
</g>
<!-- 9 -->
<g id="node10" class="node">
<title>9</title>
<polygon fill="none" stroke="black" points="516.25,-36 393.75,-36 393.75,0 516.25,0 516.25,-36"/>
<text text-anchor="middle" x="455" y="-13.32" font-family="Times,serif" font-size="14.00">lwk_containers</text>
</g>
<!-- 2&#45;&gt;9 -->
<g id="edge13" class="edge">
<title>2&#45;&gt;9</title>
<path fill="none" stroke="blue" d="M54.81,-431.54C34.22,-406.02 0,-356.2 0,-307 0,-307 0,-307 0,-161 0,-81.88 253.88,-41.73 382.36,-26.48"/>
<polygon fill="blue" stroke="blue" points="382.61,-29.97 392.13,-25.34 381.8,-23.02 382.61,-29.97"/>
</g>
<!-- 2&#45;&gt;11 -->
<g id="edge14" class="edge">
<title>2&#45;&gt;11</title>
<path fill="none" stroke="black" d="M76.99,-431.59C86.7,-407.4 104.37,-363.36 115.9,-334.65"/>
<polygon fill="black" stroke="black" points="119.09,-336.1 119.57,-325.52 112.59,-333.49 119.09,-336.1"/>
</g>
<!-- 2&#45;&gt;12 -->
<g id="edge15" class="edge">
<title>2&#45;&gt;12</title>
<path fill="none" stroke="blue" d="M63.52,-431.79C54.17,-405.36 38,-352.99 38,-307 38,-307 38,-307 38,-233 38,-119.7 205.2,-95.83 300.49,-91.42"/>
<polygon fill="blue" stroke="blue" points="300.37,-94.93 310.22,-91.04 300.09,-87.93 300.37,-94.93"/>
</g>
<!-- 3 -->
<g id="node4" class="node">
<title>3</title>
<polygon fill="none" stroke="black" points="772.5,-468 699.5,-468 699.5,-432 772.5,-432 772.5,-468"/>
<text text-anchor="middle" x="736" y="-445.32" font-family="Times,serif" font-size="14.00">lwk_hwi</text>
</g>
<!-- 4&#45;&gt;9 -->
<g id="edge17" class="edge">
<title>4&#45;&gt;9</title>
<path fill="none" stroke="black" stroke-dasharray="1,5" d="M450.39,-143.59C447.88,-119.61 447.58,-76.14 449.47,-47.42"/>
<polygon fill="black" stroke="black" points="452.95,-47.88 450.29,-37.62 445.97,-47.29 452.95,-47.88"/>
</g>
<!-- 4&#45;&gt;9 -->
<g id="edge18" class="edge">
<title>4&#45;&gt;9</title>
<path fill="none" stroke="blue" d="M459.61,-143.59C462.12,-119.61 462.42,-76.14 460.53,-47.42"/>
<polygon fill="blue" stroke="blue" points="464.03,-47.29 459.71,-37.62 457.05,-47.88 464.03,-47.29"/>
</g>
<!-- 4&#45;&gt;10 -->
<g id="edge16" class="edge">
<title>4&#45;&gt;10</title>
<path fill="none" stroke="black" d="M463.19,-143.85C473.74,-123.62 493.98,-90.42 521,-72 559.78,-45.56 611.26,-32.28 651.72,-25.63"/>
<polygon fill="black" stroke="black" points="652.24,-29.09 661.59,-24.12 651.18,-22.17 652.24,-29.09"/>
</g>
<!-- 4&#45;&gt;12 -->
<g id="edge19" class="edge">
<title>4&#45;&gt;12</title>
<path fill="none" stroke="blue" d="M432.75,-143.7C421.72,-135.11 408.21,-124.61 396.16,-115.24"/>
<polygon fill="blue" stroke="blue" points="398.54,-112.65 388.5,-109.28 394.24,-118.18 398.54,-112.65"/>
</g>
<!-- 5 -->
<g id="node6" class="node">
<title>5</title>
<polygon fill="none" stroke="black" points="623.62,-108 530.38,-108 530.38,-72 623.62,-72 623.62,-108"/>
<text text-anchor="middle" x="577" y="-85.33" font-family="Times,serif" font-size="14.00">lwk_ledger</text>
</g>
<!-- 5&#45;&gt;9 -->
<g id="edge21" class="edge">
<title>5&#45;&gt;9</title>
<path fill="none" stroke="black" stroke-dasharray="1,5" d="M540.59,-71.52C524.14,-62.6 504.88,-51.63 488.75,-42.03"/>
<polygon fill="black" stroke="black" points="490.84,-39.2 480.47,-37.04 487.23,-45.2 490.84,-39.2"/>
</g>
<!-- 5&#45;&gt;9 -->
<g id="edge22" class="edge">
<title>5&#45;&gt;9</title>
<path fill="none" stroke="blue" d="M552.46,-71.52C537.69,-62.51 518.5,-51.42 501.04,-41.76"/>
<polygon fill="blue" stroke="blue" points="502.77,-38.72 492.32,-36.99 499.41,-44.86 502.77,-38.72"/>
</g>
<!-- 5&#45;&gt;10 -->
<g id="edge20" class="edge">
<title>5&#45;&gt;10</title>
<path fill="none" stroke="black" d="M611.97,-71.52C630.23,-62.39 652.78,-51.11 672.29,-41.35"/>
<polygon fill="black" stroke="black" points="673.75,-44.54 681.13,-36.94 670.62,-38.28 673.75,-44.54"/>
</g>
<!-- 6&#45;&gt;4 -->
<g id="edge24" class="edge">
<title>6&#45;&gt;4</title>
<path fill="none" stroke="black" stroke-dasharray="1,5" d="M596.53,-215.7C568.57,-205.29 532.99,-192.04 504.5,-181.43"/>
<polygon fill="black" stroke="black" points="505.98,-178.25 495.38,-178.04 503.53,-184.81 505.98,-178.25"/>
</g>
<!-- 6&#45;&gt;5 -->
<g id="edge25" class="edge">
<title>6&#45;&gt;5</title>
<path fill="none" stroke="black" stroke-dasharray="1,5" d="M634.91,-215.59C623.61,-191.29 603.02,-146.97 589.68,-118.27"/>
<polygon fill="black" stroke="black" points="592.98,-117.08 585.59,-109.48 586.63,-120.03 592.98,-117.08"/>
</g>
<!-- 6&#45;&gt;10 -->
<g id="edge23" class="edge">
<title>6&#45;&gt;10</title>
<path fill="none" stroke="black" d="M648.93,-215.85C661.68,-178.99 691.78,-91.92 707.33,-46.96"/>
<polygon fill="black" stroke="black" points="710.59,-48.26 710.55,-37.66 703.97,-45.97 710.59,-48.26"/>
</g>
<!-- 6&#45;&gt;12 -->
<g id="edge26" class="edge">
<title>6&#45;&gt;12</title>
<path fill="none" stroke="blue" d="M619.09,-215.71C591.89,-196.54 545.7,-165.5 503,-144 479.35,-132.09 452.34,-121.17 428.52,-112.38"/>
<polygon fill="blue" stroke="blue" points="429.85,-109.13 419.25,-109.01 427.45,-115.71 429.85,-109.13"/>
</g>
<!-- 8&#45;&gt;4 -->
<g id="edge29" class="edge">
<title>8&#45;&gt;4</title>
<path fill="none" stroke="blue" d="M455.88,-287.59C455.71,-263.61 455.4,-220.14 455.2,-191.42"/>
<polygon fill="blue" stroke="blue" points="458.7,-191.6 455.13,-181.62 451.7,-191.65 458.7,-191.6"/>
</g>
<!-- 8&#45;&gt;5 -->
<g id="edge30" class="edge">
<title>8&#45;&gt;5</title>
<path fill="none" stroke="blue" d="M465.7,-287.85C486.67,-250.75 536.4,-162.81 561.68,-118.1"/>
<polygon fill="blue" stroke="blue" points="564.64,-119.98 566.51,-109.55 558.54,-116.53 564.64,-119.98"/>
</g>
<!-- 8&#45;&gt;6 -->
<g id="edge31" class="edge">
<title>8&#45;&gt;6</title>
<path fill="none" stroke="blue" d="M501.75,-287.88C527.14,-278.37 558.95,-266.46 585.95,-256.35"/>
<polygon fill="blue" stroke="blue" points="586.87,-259.75 595.01,-252.96 584.42,-253.19 586.87,-259.75"/>
</g>
<!-- 8&#45;&gt;9 -->
<g id="edge28" class="edge">
<title>8&#45;&gt;9</title>
<path fill="none" stroke="blue" d="M429.19,-287.76C371.86,-248.73 246.95,-150.9 303,-72 321.15,-46.44 352.58,-33.11 382.17,-26.19"/>
<polygon fill="blue" stroke="blue" points="382.83,-29.63 391.9,-24.15 381.39,-22.77 382.83,-29.63"/>
</g>
<!-- 8&#45;&gt;10 -->
<g id="edge27" class="edge">
<title>8&#45;&gt;10</title>
<path fill="none" stroke="black" d="M474.31,-287.64C484.91,-277.43 498.41,-264.18 510,-252 579.64,-178.81 657.82,-88.43 695.03,-44.88"/>
<polygon fill="black" stroke="black" points="697.52,-47.35 701.34,-37.47 692.19,-42.81 697.52,-47.35"/>
</g>
<!-- 8&#45;&gt;12 -->
<g id="edge32" class="edge">
<title>8&#45;&gt;12</title>
<path fill="none" stroke="blue" d="M448.71,-287.85C433,-250.91 395.85,-163.55 376.77,-118.67"/>
<polygon fill="blue" stroke="blue" points="380.05,-117.46 372.92,-109.63 373.61,-120.2 380.05,-117.46"/>
</g>
<!-- 12&#45;&gt;9 -->
<g id="edge34" class="edge">
<title>12&#45;&gt;9</title>
<path fill="none" stroke="black" d="M387.25,-71.7C398.28,-63.11 411.79,-52.61 423.84,-43.24"/>
<polygon fill="black" stroke="black" points="425.76,-46.18 431.5,-37.28 421.46,-40.65 425.76,-46.18"/>
</g>
<!-- 12&#45;&gt;10 -->
<g id="edge33" class="edge">
<title>12&#45;&gt;10</title>
<path fill="none" stroke="black" d="M418.46,-78.37C481,-65.93 584.53,-45.34 651.75,-31.98"/>
<polygon fill="black" stroke="black" points="652.43,-35.41 661.55,-30.03 651.06,-28.54 652.43,-35.41"/>
</g>
<!-- 13 -->
<g id="node14" class="node">
<title>13</title>
<polygon fill="none" stroke="black" points="743.38,-396 654.62,-396 654.62,-360 743.38,-360 743.38,-396"/>
<text text-anchor="middle" x="699" y="-373.32" font-family="Times,serif" font-size="14.00">lwk_wasm</text>
</g>
<!-- 13&#45;&gt;4 -->
<g id="edge36" class="edge">
<title>13&#45;&gt;4</title>
<path fill="none" stroke="black" d="M679.44,-359.85C636.35,-322.05 533.05,-231.45 483.05,-187.6"/>
<polygon fill="black" stroke="black" points="485.61,-185.19 475.79,-181.23 481,-190.46 485.61,-185.19"/>
</g>
<!-- 13&#45;&gt;5 -->
<g id="edge37" class="edge">
<title>13&#45;&gt;5</title>
<path fill="none" stroke="black" d="M702.93,-359.74C709,-329.36 717.97,-264.91 698,-216 680.64,-173.49 641.22,-137.38 612.07,-115.06"/>
<polygon fill="black" stroke="black" points="614.33,-112.38 604.22,-109.22 610.14,-118 614.33,-112.38"/>
</g>
<!-- 13&#45;&gt;6 -->
<g id="edge38" class="edge">
<title>13&#45;&gt;6</title>
<path fill="none" stroke="black" d="M692.13,-359.59C682.59,-335.4 665.23,-291.36 653.91,-262.65"/>
<polygon fill="black" stroke="black" points="657.23,-261.54 650.3,-253.52 650.72,-264.11 657.23,-261.54"/>
</g>
<!-- 13&#45;&gt;8 -->
<g id="edge39" class="edge">
<title>13&#45;&gt;8</title>
<path fill="none" stroke="black" d="M654.15,-364.08C614.28,-352.6 555.81,-335.75 512.71,-323.34"/>
<polygon fill="black" stroke="black" points="513.86,-320.03 503.28,-320.62 511.92,-326.75 513.86,-320.03"/>
</g>
<!-- 13&#45;&gt;10 -->
<g id="edge35" class="edge">
<title>13&#45;&gt;10</title>
<path fill="none" stroke="black" d="M721.01,-359.88C749.63,-335.5 796,-287.84 796,-235 796,-235 796,-235 796,-161 796,-119.66 790.08,-107.56 769,-72 763.1,-62.04 754.93,-52.55 746.83,-44.42"/>
<polygon fill="black" stroke="black" points="749.24,-41.89 739.59,-37.52 744.41,-46.96 749.24,-41.89"/>
</g>
<!-- 14&#45;&gt;6 -->
<g id="edge41" class="edge">
<title>14&#45;&gt;6</title>
<path fill="none" stroke="blue" d="M783.38,-359.59C755.16,-334.54 702.97,-288.22 670.79,-259.66"/>
<polygon fill="blue" stroke="blue" points="673.21,-257.14 663.41,-253.12 668.57,-262.37 673.21,-257.14"/>
</g>
<!-- 14&#45;&gt;8 -->
<g id="edge42" class="edge">
<title>14&#45;&gt;8</title>
<path fill="none" stroke="black" d="M761.4,-362.59C758.23,-361.66 755.08,-360.78 752,-360 669.9,-339.08 572.93,-323.39 512.95,-314.7"/>
<polygon fill="black" stroke="black" points="513.72,-311.27 503.32,-313.32 512.72,-318.2 513.72,-311.27"/>
</g>
<!-- 14&#45;&gt;10 -->
<g id="edge40" class="edge">
<title>14&#45;&gt;10</title>
<path fill="none" stroke="blue" d="M809.27,-359.78C818.33,-333.32 834,-280.92 834,-235 834,-235 834,-235 834,-161 834,-117.26 820.12,-105.5 792,-72 782.54,-60.73 770.15,-50.69 758.17,-42.47"/>
<polygon fill="blue" stroke="blue" points="760.26,-39.65 749.98,-37.1 756.43,-45.51 760.26,-39.65"/>
</g>
</g>
</svg>
