<?xml version="1.0" encoding="UTF-8" standalone="no"?>
<!DOCTYPE svg PUBLIC "-//W3C//DTD SVG 1.1//EN"
 "http://www.w3.org/Graphics/SVG/1.1/DTD/svg11.dtd">
<!-- Generated by graphviz version 14.1.4 (20260321.0153)
 -->
<!-- Pages: 1 -->
<svg width="959pt" height="476pt"
 viewBox="0.00 0.00 959.00 476.00" xmlns="http://www.w3.org/2000/svg" xmlns:xlink="http://www.w3.org/1999/xlink">
<g id="graph0" class="graph" transform="scale(1 1) rotate(0) translate(4 472)">
<polygon fill="white" stroke="none" points="-4,4 -4,-472 955,-472 955,4 -4,4"/>
<!-- 0 -->
<g id="node1" class="node">
<title>0</title>
<polygon fill="none" stroke="black" points="237.25,-396 174.75,-396 174.75,-360 237.25,-360 237.25,-396"/>
<text xml:space="preserve" text-anchor="middle" x="206" y="-372.95" font-family="Times,serif" font-size="14.00">lwk_app</text>
</g>
<!-- 4 -->
<g id="node5" class="node">
<title>4</title>
<polygon fill="none" stroke="black" points="476.75,-180 411.25,-180 411.25,-144 476.75,-144 476.75,-180"/>
<text xml:space="preserve" text-anchor="middle" x="444" y="-156.95" font-family="Times,serif" font-size="14.00">lwk_jade</text>
</g>
<!-- 0&#45;&gt;4 -->
<g id="edge2" class="edge">
<title>0&#45;&gt;4</title>
<path fill="none" stroke="black" d="M237.38,-363.49C240.29,-362.29 243.19,-361.11 246,-360 289.14,-342.92 308.02,-353.3 344,-324 367.3,-305.02 408.27,-231.15 429.82,-190.39"/>
<polygon fill="black" stroke="black" points="432.86,-192.14 434.41,-181.66 426.66,-188.88 432.86,-192.14"/>
</g>
<!-- 6 -->
<g id="node7" class="node">
<title>6</title>
<polygon fill="none" stroke="black" points="695,-252 619,-252 619,-216 695,-216 695,-252"/>
<text xml:space="preserve" text-anchor="middle" x="657" y="-228.95" font-family="Times,serif" font-size="14.00">lwk_signer</text>
</g>
<!-- 0&#45;&gt;6 -->
<g id="edge4" class="edge">
<title>0&#45;&gt;6</title>
<path fill="none" stroke="black" d="M237.73,-363.06C240.51,-361.98 243.29,-360.94 246,-360 303.02,-340.15 319.11,-341.15 377,-324 458.38,-299.89 552.27,-269.52 608.02,-251.21"/>
<polygon fill="black" stroke="black" points="608.81,-254.64 617.21,-248.19 606.62,-247.99 608.81,-254.64"/>
</g>
<!-- 7 -->
<g id="node8" class="node">
<title>7</title>
<polygon fill="none" stroke="black" points="334.88,-324 243.12,-324 243.12,-288 334.88,-288 334.88,-324"/>
<text xml:space="preserve" text-anchor="middle" x="289" y="-300.95" font-family="Times,serif" font-size="14.00">lwk_tiny_jrpc</text>
</g>
<!-- 0&#45;&gt;7 -->
<g id="edge5" class="edge">
<title>0&#45;&gt;7</title>
<path fill="none" stroke="black" d="M226.52,-359.7C236.59,-351.2 248.91,-340.81 259.93,-331.51"/>
<polygon fill="black" stroke="black" points="261.89,-334.45 267.27,-325.32 257.37,-329.09 261.89,-334.45"/>
</g>
<!-- 8 -->
<g id="node9" class="node">
<title>8</title>
<polygon fill="none" stroke="black" points="581.38,-324 504.62,-324 504.62,-288 581.38,-288 581.38,-324"/>
<text xml:space="preserve" text-anchor="middle" x="543" y="-300.95" font-family="Times,serif" font-size="14.00">lwk_wollet</text>
</g>
<!-- 0&#45;&gt;8 -->
<g id="edge6" class="edge">
<title>0&#45;&gt;8</title>
<path fill="none" stroke="black" d="M237.64,-362.79C240.44,-361.77 243.25,-360.82 246,-360 291.45,-346.48 421.18,-325.57 493.24,-314.49"/>
<polygon fill="black" stroke="black" points="493.43,-318 502.79,-313.03 492.37,-311.08 493.43,-318"/>
</g>
<!-- 10 -->
<g id="node11" class="node">
<title>10</title>
<polygon fill="none" stroke="black" points="740.88,-36 649.12,-36 649.12,0 740.88,0 740.88,-36"/>
<text xml:space="preserve" text-anchor="middle" x="695" y="-12.95" font-family="Times,serif" font-size="14.00">lwk_common</text>
</g>
<!-- 0&#45;&gt;10 -->
<g id="edge1" class="edge">
<title>0&#45;&gt;10</title>
<path fill="none" stroke="black" d="M237.58,-362.57C240.39,-361.6 243.22,-360.72 246,-360 394.83,-321.51 444.76,-374.36 590,-324 618.31,-314.18 689.54,-278.24 704,-252 740.22,-186.28 719.27,-93.57 704.95,-47.42"/>
<polygon fill="black" stroke="black" points="708.28,-46.35 701.87,-37.91 701.62,-48.5 708.28,-46.35"/>
</g>
<!-- 11 -->
<g id="node12" class="node">
<title>11</title>
<polygon fill="none" stroke="black" points="224.75,-324 123.25,-324 123.25,-288 224.75,-288 224.75,-324"/>
<text xml:space="preserve" text-anchor="middle" x="174" y="-300.95" font-family="Times,serif" font-size="14.00">lwk_rpc_model</text>
</g>
<!-- 0&#45;&gt;11 -->
<g id="edge3" class="edge">
<title>0&#45;&gt;11</title>
<path fill="none" stroke="black" d="M198.09,-359.7C194.6,-352.07 190.42,-342.92 186.52,-334.4"/>
<polygon fill="black" stroke="black" points="189.79,-333.12 182.45,-325.48 183.42,-336.03 189.79,-333.12"/>
</g>
<!-- 1 -->
<g id="node2" class="node">
<title>1</title>
<polygon fill="none" stroke="black" points="615.75,-468 526.25,-468 526.25,-432 615.75,-432 615.75,-468"/>
<text xml:space="preserve" text-anchor="middle" x="571" y="-444.95" font-family="Times,serif" font-size="14.00">lwk_bindings</text>
</g>
<!-- 1&#45;&gt;6 -->
<g id="edge10" class="edge">
<title>1&#45;&gt;6</title>
<path fill="none" stroke="black" d="M614.85,-431.54C629.98,-423.17 645.31,-411.51 654,-396 677.22,-354.55 670.93,-297.17 664.08,-263.29"/>
<polygon fill="black" stroke="black" points="667.57,-262.84 662,-253.82 660.73,-264.34 667.57,-262.84"/>
</g>
<!-- 1&#45;&gt;8 -->
<g id="edge12" class="edge">
<title>1&#45;&gt;8</title>
<path fill="none" stroke="black" d="M538.6,-431.64C525.64,-422.84 512.12,-410.84 505,-396 494.98,-375.1 506.79,-350.88 519.82,-332.99"/>
<polygon fill="black" stroke="black" points="522.31,-335.49 525.7,-325.45 516.79,-331.18 522.31,-335.49"/>
</g>
<!-- 1&#45;&gt;10 -->
<g id="edge8" class="edge">
<title>1&#45;&gt;10</title>
<path fill="none" stroke="black" d="M616.12,-445.24C692.01,-436.19 837,-405.94 837,-307 837,-307 837,-307 837,-161 837,-106.41 783.87,-65.47 742.61,-41.91"/>
<polygon fill="black" stroke="black" points="744.45,-38.93 734.01,-37.17 741.08,-45.06 744.45,-38.93"/>
</g>
<!-- 12 -->
<g id="node13" class="node">
<title>12</title>
<polygon fill="none" stroke="black" points="403.25,-108 316.75,-108 316.75,-72 403.25,-72 403.25,-108"/>
<text xml:space="preserve" text-anchor="middle" x="360" y="-84.95" font-family="Times,serif" font-size="14.00">lwk_test_util</text>
</g>
<!-- 1&#45;&gt;12 -->
<g id="edge11" class="edge">
<title>1&#45;&gt;12</title>
<path fill="none" stroke="black" d="M525.94,-447.55C433.48,-443.88 225.99,-431.77 166,-396 132.1,-375.78 126.14,-361.56 114,-324 80.54,-220.51 223.74,-144.97 305.86,-110.99"/>
<polygon fill="black" stroke="black" points="306.94,-114.33 314.89,-107.33 304.31,-107.84 306.94,-114.33"/>
</g>
<!-- 14 -->
<g id="node15" class="node">
<title>14</title>
<polygon fill="none" stroke="black" points="771,-396 701,-396 701,-360 771,-360 771,-396"/>
<text xml:space="preserve" text-anchor="middle" x="736" y="-372.95" font-family="Times,serif" font-size="14.00">lwk_boltz</text>
</g>
<!-- 1&#45;&gt;14 -->
<g id="edge7" class="edge">
<title>1&#45;&gt;14</title>
<path fill="none" stroke="black" stroke-dasharray="1,5" d="M612.21,-431.52C635.91,-421.46 665.73,-408.81 690.16,-398.45"/>
<polygon fill="black" stroke="black" points="691.39,-401.73 699.23,-394.6 688.65,-395.28 691.39,-401.73"/>
</g>
<!-- 15 -->
<g id="node16" class="node">
<title>15</title>
<polygon fill="none" stroke="black" points="415,-396 255,-396 255,-360 415,-360 415,-396"/>
<text xml:space="preserve" text-anchor="middle" x="335" y="-372.95" font-family="Times,serif" font-size="14.00">lwk_payment_instructions</text>
</g>
<!-- 1&#45;&gt;15 -->
<g id="edge9" class="edge">
<title>1&#45;&gt;15</title>
<path fill="none" stroke="black" d="M525.78,-435.59C491.52,-425.43 443.84,-411.28 404.72,-399.68"/>
<polygon fill="black" stroke="black" points="405.96,-396.4 395.38,-396.91 403.97,-403.11 405.96,-396.4"/>
</g>
<!-- 2 -->
<g id="node3" class="node">
<title>2</title>
<polygon fill="none" stroke="black" points="85.25,-468 28.75,-468 28.75,-432 85.25,-432 85.25,-468"/>
<text xml:space="preserve" text-anchor="middle" x="57" y="-444.95" font-family="Times,serif" font-size="14.00">lwk_cli</text>
</g>
<!-- 2&#45;&gt;0 -->
<g id="edge13" class="edge">
<title>2&#45;&gt;0</title>
<path fill="none" stroke="black" d="M85.73,-435.5C107.93,-425.07 138.98,-410.49 163.97,-398.75"/>
<polygon fill="black" stroke="black" points="165.33,-401.97 172.89,-394.55 162.36,-395.64 165.33,-401.97"/>
</g>
<!-- 9 -->
<g id="node10" class="node">
<title>9</title>
<polygon fill="none" stroke="black" points="489.25,-36 390.75,-36 390.75,0 489.25,0 489.25,-36"/>
<text xml:space="preserve" text-anchor="middle" x="440" y="-12.95" font-family="Times,serif" font-size="14.00">lwk_containers</text>
</g>
<!-- 2&#45;&gt;9 -->
<g id="edge14" class="edge">
<title>2&#45;&gt;9</title>
<path fill="none" stroke="blue" d="M44.91,-431.53C28.18,-405.59 0,-354.82 0,-307 0,-307 0,-307 0,-161 0,-82.27 258.37,-40.82 379.14,-25.74"/>
<polygon fill="blue" stroke="blue" points="379.38,-29.24 388.88,-24.55 378.53,-22.29 379.38,-29.24"/>
</g>
<!-- 2&#45;&gt;11 -->
<g id="edge15" class="edge">
<title>2&#45;&gt;11</title>
<path fill="none" stroke="black" d="M71.35,-431.59C91.72,-406.86 129.17,-361.41 152.77,-332.77"/>
<polygon fill="black" stroke="black" points="155.28,-335.22 158.94,-325.28 149.88,-330.77 155.28,-335.22"/>
</g>
<!-- 2&#45;&gt;12 -->
<g id="edge16" class="edge">
<title>2&#45;&gt;12</title>
<path fill="none" stroke="blue" d="M53.16,-431.61C47.6,-404.94 38,-352.27 38,-307 38,-307 38,-307 38,-233 38,-117.58 213.36,-95.18 305.26,-91.36"/>
<polygon fill="blue" stroke="blue" points="305.19,-94.87 315.06,-91.02 304.95,-87.87 305.19,-94.87"/>
</g>
<!-- 3 -->
<g id="node4" class="node">
<title>3</title>
<polygon fill="none" stroke="black" points="885.62,-468 822.38,-468 822.38,-432 885.62,-432 885.62,-468"/>
<text xml:space="preserve" text-anchor="middle" x="854" y="-444.95" font-family="Times,serif" font-size="14.00">lwk_hwi</text>
</g>
<!-- 4&#45;&gt;9 -->
<g id="edge18" class="edge">
<title>4&#45;&gt;9</title>
<path fill="none" stroke="black" stroke-dasharray="1,5" d="M438.9,-143.59C435.72,-119.61 434.19,-76.14 435.27,-47.42"/>
<polygon fill="black" stroke="black" points="438.76,-47.8 435.82,-37.62 431.77,-47.41 438.76,-47.8"/>
</g>
<!-- 4&#45;&gt;9 -->
<g id="edge19" class="edge">
<title>4&#45;&gt;9</title>
<path fill="none" stroke="blue" d="M448.12,-143.59C449.95,-119.61 449.03,-76.14 446.33,-47.42"/>
<polygon fill="blue" stroke="blue" points="449.82,-47.16 445.23,-37.62 442.87,-47.94 449.82,-47.16"/>
</g>
<!-- 4&#45;&gt;10 -->
<g id="edge17" class="edge">
<title>4&#45;&gt;10</title>
<path fill="none" stroke="black" d="M451.63,-143.54C461.35,-123.32 480.06,-90.44 506,-72 544.89,-44.36 597.77,-31.1 637.71,-24.76"/>
<polygon fill="black" stroke="black" points="637.99,-28.26 647.37,-23.33 636.97,-21.33 637.99,-28.26"/>
</g>
<!-- 4&#45;&gt;12 -->
<g id="edge20" class="edge">
<title>4&#45;&gt;12</title>
<path fill="none" stroke="blue" d="M423.24,-143.7C413.04,-135.2 400.58,-124.81 389.42,-115.51"/>
<polygon fill="blue" stroke="blue" points="391.9,-113.03 381.98,-109.32 387.42,-118.41 391.9,-113.03"/>
</g>
<!-- 5 -->
<g id="node6" class="node">
<title>5</title>
<polygon fill="none" stroke="black" points="591.38,-108 514.62,-108 514.62,-72 591.38,-72 591.38,-108"/>
<text xml:space="preserve" text-anchor="middle" x="553" y="-84.95" font-family="Times,serif" font-size="14.00">lwk_ledger</text>
</g>
<!-- 5&#45;&gt;9 -->
<g id="edge22" class="edge">
<title>5&#45;&gt;9</title>
<path fill="none" stroke="black" stroke-dasharray="1,5" d="M518.84,-71.52C503.68,-62.68 486.02,-51.84 471.21,-42.3"/>
<polygon fill="black" stroke="black" points="473.51,-39.62 463.22,-37.09 469.68,-45.48 473.51,-39.62"/>
</g>
<!-- 5&#45;&gt;9 -->
<g id="edge23" class="edge">
<title>5&#45;&gt;9</title>
<path fill="none" stroke="blue" d="M530.71,-71.52C517.22,-62.6 499.67,-51.63 483.56,-42.03"/>
<polygon fill="blue" stroke="blue" points="485.47,-39.09 475.08,-37.03 481.92,-45.12 485.47,-39.09"/>
</g>
<!-- 5&#45;&gt;10 -->
<g id="edge21" class="edge">
<title>5&#45;&gt;10</title>
<path fill="none" stroke="black" d="M588.47,-71.52C607.07,-62.34 630.07,-51.01 649.93,-41.22"/>
<polygon fill="black" stroke="black" points="651.21,-44.49 658.63,-36.93 648.11,-38.21 651.21,-44.49"/>
</g>
<!-- 6&#45;&gt;4 -->
<g id="edge25" class="edge">
<title>6&#45;&gt;4</title>
<path fill="none" stroke="black" stroke-dasharray="1,5" d="M618.62,-221.2C584.89,-210.72 534.53,-194.82 491,-180 489.87,-179.62 488.73,-179.22 487.57,-178.83"/>
<polygon fill="black" stroke="black" points="489.09,-175.65 478.5,-175.64 486.77,-182.25 489.09,-175.65"/>
</g>
<!-- 6&#45;&gt;5 -->
<g id="edge26" class="edge">
<title>6&#45;&gt;5</title>
<path fill="none" stroke="black" stroke-dasharray="1,5" d="M644.25,-215.59C626.22,-190.97 593.13,-145.8 572.15,-117.14"/>
<polygon fill="black" stroke="black" points="575.16,-115.33 566.43,-109.33 569.51,-119.47 575.16,-115.33"/>
</g>
<!-- 6&#45;&gt;10 -->
<g id="edge24" class="edge">
<title>6&#45;&gt;10</title>
<path fill="none" stroke="black" d="M660.05,-215.85C666.56,-179.14 681.92,-92.66 689.93,-47.53"/>
<polygon fill="black" stroke="black" points="693.37,-48.18 691.68,-37.72 686.48,-46.96 693.37,-48.18"/>
</g>
<!-- 6&#45;&gt;12 -->
<g id="edge27" class="edge">
<title>6&#45;&gt;12</title>
<path fill="none" stroke="blue" d="M625.56,-215.65C591.54,-197.11 535.53,-167.26 486,-144 462.63,-133.03 436.38,-121.81 413.9,-112.54"/>
<polygon fill="blue" stroke="blue" points="415.52,-109.42 404.94,-108.86 412.86,-115.89 415.52,-109.42"/>
</g>
<!-- 8&#45;&gt;4 -->
<g id="edge30" class="edge">
<title>8&#45;&gt;4</title>
<path fill="none" stroke="blue" d="M530.89,-287.6C518.39,-269.66 498.34,-240.87 481,-216 475,-207.4 468.45,-198.02 462.56,-189.57"/>
<polygon fill="blue" stroke="blue" points="465.46,-187.62 456.87,-181.42 459.72,-191.63 465.46,-187.62"/>
</g>
<!-- 8&#45;&gt;5 -->
<g id="edge31" class="edge">
<title>8&#45;&gt;5</title>
<path fill="none" stroke="blue" d="M543.8,-287.85C545.52,-251.14 549.56,-164.66 551.67,-119.53"/>
<polygon fill="blue" stroke="blue" points="555.15,-119.9 552.12,-109.74 548.16,-119.57 555.15,-119.9"/>
</g>
<!-- 8&#45;&gt;6 -->
<g id="edge32" class="edge">
<title>8&#45;&gt;6</title>
<path fill="none" stroke="blue" d="M571.47,-287.52C586,-278.6 603.86,-267.63 619.49,-258.03"/>
<polygon fill="blue" stroke="blue" points="620.91,-261.27 627.6,-253.05 617.25,-255.3 620.91,-261.27"/>
</g>
<!-- 8&#45;&gt;9 -->
<g id="edge29" class="edge">
<title>8&#45;&gt;9</title>
<path fill="none" stroke="blue" d="M504.24,-291.87C481.02,-282.86 451.7,-269.38 429,-252 362.63,-201.17 336.62,-186.54 308,-108 302.52,-92.97 299.04,-85.25 308,-72 324.04,-48.28 352.62,-35.18 379.1,-27.94"/>
<polygon fill="blue" stroke="blue" points="379.93,-31.33 388.81,-25.54 378.26,-24.54 379.93,-31.33"/>
</g>
<!-- 8&#45;&gt;10 -->
<g id="edge28" class="edge">
<title>8&#45;&gt;10</title>
<path fill="none" stroke="black" d="M552.28,-287.54C577.89,-239.36 649.68,-104.27 680.57,-46.15"/>
<polygon fill="black" stroke="black" points="683.53,-48.04 685.13,-37.57 677.35,-44.76 683.53,-48.04"/>
</g>
<!-- 8&#45;&gt;12 -->
<g id="edge33" class="edge">
<title>8&#45;&gt;12</title>
<path fill="none" stroke="blue" d="M517.22,-287.64C486.29,-265.7 434.56,-225.29 402,-180 388.45,-161.16 377.46,-137.26 370.12,-118.97"/>
<polygon fill="blue" stroke="blue" points="373.45,-117.88 366.58,-109.82 366.92,-120.41 373.45,-117.88"/>
</g>
<!-- 12&#45;&gt;9 -->
<g id="edge35" class="edge">
<title>12&#45;&gt;9</title>
<path fill="none" stroke="black" d="M379.78,-71.7C389.39,-63.28 401.12,-53.02 411.67,-43.79"/>
<polygon fill="black" stroke="black" points="413.81,-46.56 419.04,-37.34 409.21,-41.29 413.81,-46.56"/>
</g>
<!-- 12&#45;&gt;10 -->
<g id="edge34" class="edge">
<title>12&#45;&gt;10</title>
<path fill="none" stroke="black" d="M403.45,-79.92C463.28,-67.42 571.15,-44.88 637.57,-31"/>
<polygon fill="black" stroke="black" points="638.11,-34.46 647.19,-28.99 636.68,-27.61 638.11,-34.46"/>
</g>
<!-- 13 -->
<g id="node14" class="node">
<title>13</title>
<polygon fill="none" stroke="black" points="804.62,-468 729.38,-468 729.38,-432 804.62,-432 804.62,-468"/>
<text xml:space="preserve" text-anchor="middle" x="767" y="-444.95" font-family="Times,serif" font-size="14.00">lwk_wasm</text>
</g>
<!-- 13&#45;&gt;4 -->
<g id="edge38" class="edge">
<title>13&#45;&gt;4</title>
<path fill="none" stroke="black" d="M729.28,-445.13C668.97,-438.25 554.52,-422.09 524,-396 462.56,-343.48 448.24,-241.52 444.95,-191.74"/>
<polygon fill="black" stroke="black" points="448.44,-191.58 444.41,-181.79 441.45,-191.96 448.44,-191.58"/>
</g>
<!-- 13&#45;&gt;5 -->
<g id="edge39" class="edge">
<title>13&#45;&gt;5</title>
<path fill="none" stroke="black" d="M779.31,-431.78C785.65,-421.84 792.73,-408.8 796,-396 808.02,-348.99 803.92,-330.22 780,-288 735.17,-208.88 646.18,-146.19 593.93,-114.23"/>
<polygon fill="black" stroke="black" points="595.98,-111.37 585.6,-109.21 592.37,-117.37 595.98,-111.37"/>
</g>
<!-- 13&#45;&gt;6 -->
<g id="edge40" class="edge">
<title>13&#45;&gt;6</title>
<path fill="none" stroke="black" d="M772.41,-431.53C775.3,-421.29 778.55,-408.04 780,-396 785.91,-347.09 786.91,-325.54 755,-288 741.91,-272.6 723.18,-260.94 705.59,-252.54"/>
<polygon fill="black" stroke="black" points="707.36,-249.49 696.8,-248.58 704.48,-255.88 707.36,-249.49"/>
</g>
<!-- 13&#45;&gt;8 -->
<g id="edge41" class="edge">
<title>13&#45;&gt;8</title>
<path fill="none" stroke="black" d="M729.35,-445.85C670.62,-440.07 561.49,-425.55 538,-396 524.62,-379.17 527.24,-354.39 532.43,-335.25"/>
<polygon fill="black" stroke="black" points="535.71,-336.49 535.33,-325.9 529.02,-334.42 535.71,-336.49"/>
</g>
<!-- 13&#45;&gt;10 -->
<g id="edge37" class="edge">
<title>13&#45;&gt;10</title>
<path fill="none" stroke="black" d="M800.32,-431.6C853.34,-402.79 951,-344.63 951,-307 951,-307 951,-307 951,-161 951,-70.84 828.08,-37.45 752.59,-25.44"/>
<polygon fill="black" stroke="black" points="753.27,-22 742.86,-23.98 752.23,-28.93 753.27,-22"/>
</g>
<!-- 13&#45;&gt;14 -->
<g id="edge36" class="edge">
<title>13&#45;&gt;14</title>
<path fill="none" stroke="black" d="M759.34,-431.7C755.96,-424.07 751.91,-414.92 748.13,-406.4"/>
<polygon fill="black" stroke="black" points="751.44,-405.21 744.19,-397.49 745.04,-408.05 751.44,-405.21"/>
</g>
<!-- 14&#45;&gt;6 -->
<g id="edge43" class="edge">
<title>14&#45;&gt;6</title>
<path fill="none" stroke="blue" d="M740.86,-359.77C745.16,-340.94 749.06,-310.46 737,-288 729.84,-274.67 717.69,-264.12 704.99,-256.07"/>
<polygon fill="blue" stroke="blue" points="706.95,-253.16 696.55,-251.15 703.43,-259.21 706.95,-253.16"/>
</g>
<!-- 14&#45;&gt;8 -->
<g id="edge44" class="edge">
<title>14&#45;&gt;8</title>
<path fill="none" stroke="black" d="M700.6,-364.16C670.26,-353.16 626.22,-337.19 592.41,-324.92"/>
<polygon fill="black" stroke="black" points="593.84,-321.72 583.24,-321.6 591.45,-328.3 593.84,-321.72"/>
</g>
<!-- 14&#45;&gt;10 -->
<g id="edge42" class="edge">
<title>14&#45;&gt;10</title>
<path fill="none" stroke="black" d="M771.44,-360.14C812.62,-337.79 875,-294.16 875,-235 875,-235 875,-235 875,-161 875,-120.03 879.03,-101.88 851,-72 825.42,-44.73 785.29,-31.49 752.14,-25.06"/>
<polygon fill="black" stroke="black" points="753.14,-21.68 742.68,-23.39 751.92,-28.58 753.14,-21.68"/>
</g>
<!-- 16 -->
<g id="node17" class="node">
<title>16</title>
<polygon fill="none" stroke="black" points="644.88,-396 547.12,-396 547.12,-360 644.88,-360 644.88,-396"/>
<text xml:space="preserve" text-anchor="middle" x="596" y="-372.95" font-family="Times,serif" font-size="14.00">lwk_simplicity</text>
</g>
<!-- 16&#45;&gt;6 -->
<g id="edge46" class="edge">
<title>16&#45;&gt;6</title>
<path fill="none" stroke="black" d="M603.48,-359.59C613.87,-335.4 632.79,-291.36 645.12,-262.65"/>
<polygon fill="black" stroke="black" points="648.32,-264.07 649.05,-253.5 641.89,-261.31 648.32,-264.07"/>
</g>
<!-- 16&#45;&gt;8 -->
<g id="edge48" class="edge">
<title>16&#45;&gt;8</title>
<path fill="none" stroke="black" d="M576.98,-359.7C570.2,-351.81 562.78,-342.3 556.53,-333.55"/>
<polygon fill="black" stroke="black" points="559.45,-331.62 550.91,-325.35 553.68,-335.58 559.45,-331.62"/>
</g>
<!-- 16&#45;&gt;8 -->
<g id="edge49" class="edge">
<title>16&#45;&gt;8</title>
<path fill="none" stroke="blue" d="M588.81,-359.7C583.49,-351.56 576.23,-341.69 568.99,-332.7"/>
<polygon fill="blue" stroke="blue" points="571.9,-330.72 562.81,-325.27 566.52,-335.2 571.9,-330.72"/>
</g>
<!-- 16&#45;&gt;10 -->
<g id="edge45" class="edge">
<title>16&#45;&gt;10</title>
<path fill="none" stroke="black" d="M625.92,-359.64C659.06,-338.68 711.21,-300.16 737,-252 774.83,-181.37 777.31,-146.17 747,-72 742.73,-61.55 735.3,-52.05 727.36,-44.07"/>
<polygon fill="black" stroke="black" points="729.84,-41.59 720.13,-37.35 725.08,-46.72 729.84,-41.59"/>
</g>
<!-- 16&#45;&gt;12 -->
<g id="edge47" class="edge">
<title>16&#45;&gt;12</title>
<path fill="none" stroke="blue" d="M556.19,-359.7C537.08,-350.47 514.4,-338.11 496,-324 430.35,-273.64 410.82,-255.95 378,-180 369.72,-160.84 365.19,-137.68 362.74,-119.79"/>
<polygon fill="blue" stroke="blue" points="366.22,-119.38 361.55,-109.87 359.27,-120.21 366.22,-119.38"/>
</g>
</g>
</svg>
