<?xml version="1.0" encoding="UTF-8"?><svg id="Layer_2" xmlns="http://www.w3.org/2000/svg" xmlns:xlink="http://www.w3.org/1999/xlink" viewBox="0 0 1165.2 1300.25"><defs><style>.cls-1{fill:none;}.cls-2{fill:#14909c;}.cls-3{fill:#fff;}.cls-4{fill:#22e1c9;}.cls-5{clip-path:url(#clippath);}</style><clipPath id="clippath"><path class="cls-1" d="M1165.2,901.98v-503.7c0-52.3-27.9-100.6-73.2-126.8L655.8,19.57c-45.3-26.1-101.1-26.1-146.4,0L73.2,271.48C27.9,297.57,0,345.98,0,398.27v503.7c0,52.3,27.9,100.6,73.2,126.8l436.2,251.9c45.3,26.1,101.1,26.1,146.4,0l436.2-251.9c45.3-26.1,73.2-74.5,73.2-126.8h0Z"/></clipPath></defs><g id="Layer_1-2"><g id="Layer_1-3"><g class="cls-5"><polygon class="cls-2" points="0 313.67 0 565.37 367.5 775.88 364.6 1196.98 582.6 1322.77 587.2 650.07 0 313.67"/><polygon class="cls-2" points="0 678.27 268.9 832.38 266.8 1140.48 0 986.38 0 678.27"/><polygon class="cls-4" points="803 524.48 587.2 650.07 582.6 1322.77 1165.2 986.48 1165.2 737.98 800.2 948.77 803 524.48"/><polygon class="cls-4" points="1165.2 313.67 1165.2 624.27 898.1 778.38 900.2 467.87 1165.2 313.67"/><polygon class="cls-3" points="435.1 313.67 800.2 102.97 582.6 -22.63 0 313.67 587.2 650.07 803 524.48 435.1 313.67"/><polygon class="cls-3" points="631.1 313.67 898.1 159.47 1165.2 313.67 900.2 467.87 631.1 313.67"/></g></g></g></svg>