<?xml version="1.0" encoding="UTF-8"?><svg id="Layer_2" xmlns="http://www.w3.org/2000/svg" xmlns:xlink="http://www.w3.org/1999/xlink" viewBox="0 0 944.8 423.25"><defs><style>.cls-1{fill:none;}.cls-2{fill:#14909c;}.cls-3{fill:#22e1c9;}.cls-4{fill:#0d1437;}.cls-5{clip-path:url(#clippath);}</style><clipPath id="clippath"><path class="cls-1" d="M379.2,293.58v-163.9c0-17-9.1-32.7-23.8-41.3L213.4,6.38c-14.7-8.5-32.9-8.5-47.6,0L23.8,88.38C9.1,96.88,0,112.58,0,129.68v163.9c0,17,9.1,32.7,23.8,41.3l142,82c14.7,8.5,32.9,8.5,47.6,0l142-82c14.7-8.5,23.8-24.2,23.8-41.3Z"/></clipPath></defs><g id="Layer_1-2"><g id="Layer_1-3"><g class="cls-5"><polygon class="cls-2" points="0 102.17 0 184.08 119.6 252.58 118.7 389.58 189.6 430.58 191.1 211.58 0 102.17"/><polygon class="cls-2" points="0 220.78 87.5 270.97 86.8 371.28 0 321.08 0 220.78"/><polygon class="cls-3" points="261.3 170.77 191.1 211.58 189.6 430.58 379.2 321.08 379.2 240.28 260.4 308.88 261.3 170.77"/><polygon class="cls-3" points="379.2 102.17 379.2 203.17 292.3 253.38 293 152.38 379.2 102.17"/><polygon class="cls-4" points="141.6 102.17 260.4 33.58 189.6 -7.33 0 102.17 191.1 211.58 261.3 170.77 141.6 102.17"/><polygon class="cls-4" points="205.4 102.17 292.3 51.98 379.2 102.17 293 152.38 205.4 102.17"/></g><path class="cls-4" d="M487.5,291.47V102.47h30.3v163.6h86.1v25.5h-116.5l.1-.1Z"/><path class="cls-4" d="M640.5,291.47l-13.5-189h26.5l6.8,110,3,48.5h2.2l21.4-112.7h30.1l21.4,112.7h2.2l3-48.5,7.1-110h25.5l-13.5,189h-40.6l-19.2-109.4h-2.2l-19.2,109.4h-41Z"/><path class="cls-4" d="M859.6,204.58l-22.8,28.4v58.5h-30.3V102.48h30.3v90.5h1.4l23-31.4,46.3-59h34.9l-62.3,79.6,64.7,109.4h-34.7l-50.6-86.9.1-.1Z"/></g></g></svg>