<?xml version="1.0" encoding="UTF-8" standalone="no"?><!DOCTYPE svg PUBLIC "-//W3C//DTD SVG 1.1//EN" "http://www.w3.org/Graphics/SVG/1.1/DTD/svg11.dtd"><!-- Generated by graphviz version 2.40.1 (20161225.0304)
 --><!-- Title: %0 Pages: 1 --><svg xmlns="http://www.w3.org/2000/svg" xmlns:xlink="http://www.w3.org/1999/xlink" width="774pt" height="476pt" viewBox="0.00 0.00 774.40 476.00">
<g id="graph0" class="graph" transform="scale(1 1) rotate(0) translate(4 472)">
<title>%0</title>
<polygon fill="#ffffff" stroke="transparent" points="-4,4 -4,-472 770.4014,-472 770.4014,4 -4,4"/>
<!-- 0 -->
<g id="node1" class="node">
<title>0</title>
<polygon fill="none" stroke="#000000" points="304.2122,-396 239.7878,-396 239.7878,-360 304.2122,-360 304.2122,-396"/>
<text text-anchor="middle" x="272" y="-373.8" font-family="Times,serif" font-size="14.00" fill="#000000">lwk_app</text>
</g>
<!-- 4 -->
<g id="node5" class="node">
<title>4</title>
<polygon fill="none" stroke="#000000" points="357.8177,-180 290.1823,-180 290.1823,-144 357.8177,-144 357.8177,-180"/>
<text text-anchor="middle" x="324" y="-157.8" font-family="Times,serif" font-size="14.00" fill="#000000">lwk_jade</text>
</g>
<!-- 0&#45;&gt;4 -->
<g id="edge2" class="edge">
<title>0-&gt;4</title>
<path fill="none" stroke="#000000" d="M272.7527,-359.5734C274.4333,-329.0367 279.7307,-266.3187 296,-216 298.927,-206.9472 303.2617,-197.5782 307.6508,-189.2367"/>
<polygon fill="#000000" stroke="#000000" points="310.7991,-190.7752 312.5572,-180.3272 304.6674,-187.3985 310.7991,-190.7752"/>
</g>
<!-- 6 -->
<g id="node7" class="node">
<title>6</title>
<polygon fill="none" stroke="#000000" points="568.2079,-252 489.7921,-252 489.7921,-216 568.2079,-216 568.2079,-252"/>
<text text-anchor="middle" x="529" y="-229.8" font-family="Times,serif" font-size="14.00" fill="#000000">lwk_signer</text>
</g>
<!-- 0&#45;&gt;6 -->
<g id="edge4" class="edge">
<title>0-&gt;6</title>
<path fill="none" stroke="#000000" d="M304.2445,-371.4703C336.721,-363.8259 387.2845,-348.93 425,-324 443.1069,-312.0313 441.9647,-302.6281 458,-288 469.324,-277.6698 482.5048,-267.2555 494.4139,-258.3663"/>
<polygon fill="#000000" stroke="#000000" points="496.8343,-260.9308 502.816,-252.1862 492.6866,-255.2919 496.8343,-260.9308"/>
</g>
<!-- 7 -->
<g id="node8" class="node">
<title>7</title>
<polygon fill="none" stroke="#000000" points="244.0453,-324 149.9547,-324 149.9547,-288 244.0453,-288 244.0453,-324"/>
<text text-anchor="middle" x="197" y="-301.8" font-family="Times,serif" font-size="14.00" fill="#000000">lwk_tiny_jrpc</text>
</g>
<!-- 0&#45;&gt;7 -->
<g id="edge5" class="edge">
<title>0-&gt;7</title>
<path fill="none" stroke="#000000" d="M253.0743,-359.8314C244.0143,-351.1337 233.0191,-340.5783 223.1735,-331.1265"/>
<polygon fill="#000000" stroke="#000000" points="225.5574,-328.5633 215.9196,-324.1628 220.7096,-333.613 225.5574,-328.5633"/>
</g>
<!-- 8 -->
<g id="node9" class="node">
<title>8</title>
<polygon fill="none" stroke="#000000" points="416.4902,-324 337.5098,-324 337.5098,-288 416.4902,-288 416.4902,-324"/>
<text text-anchor="middle" x="377" y="-301.8" font-family="Times,serif" font-size="14.00" fill="#000000">lwk_wollet</text>
</g>
<!-- 0&#45;&gt;8 -->
<g id="edge6" class="edge">
<title>0-&gt;8</title>
<path fill="none" stroke="#000000" d="M298.4959,-359.8314C311.6774,-350.7927 327.7847,-339.7476 341.9711,-330.0198"/>
<polygon fill="#000000" stroke="#000000" points="344.2446,-332.7047 350.5125,-324.1628 340.2859,-326.9316 344.2446,-332.7047"/>
</g>
<!-- 10 -->
<g id="node11" class="node">
<title>10</title>
<polygon fill="none" stroke="#000000" points="674.493,-36 581.507,-36 581.507,0 674.493,0 674.493,-36"/>
<text text-anchor="middle" x="628" y="-13.8" font-family="Times,serif" font-size="14.00" fill="#000000">lwk_common</text>
</g>
<!-- 0&#45;&gt;10 -->
<g id="edge1" class="edge">
<title>0-&gt;10</title>
<path fill="none" stroke="#000000" d="M304.4387,-371.0912C341.8861,-362.5255 404.8828,-346.2849 456,-324 513.3641,-298.9918 536.0004,-299.2766 577,-252 622.4253,-199.6201 623.4026,-175.9869 637,-108 641.119,-87.4052 638.4772,-63.7635 635.0149,-45.8803"/>
<polygon fill="#000000" stroke="#000000" points="638.4344,-45.1334 632.9264,-36.0829 631.5882,-46.5929 638.4344,-45.1334"/>
</g>
<!-- 11 -->
<g id="node12" class="node">
<title>11</title>
<polygon fill="none" stroke="#000000" points="131.8683,-324 28.1317,-324 28.1317,-288 131.8683,-288 131.8683,-324"/>
<text text-anchor="middle" x="80" y="-301.8" font-family="Times,serif" font-size="14.00" fill="#000000">lwk_rpc_model</text>
</g>
<!-- 0&#45;&gt;11 -->
<g id="edge3" class="edge">
<title>0-&gt;11</title>
<path fill="none" stroke="#000000" d="M239.8635,-365.9488C212.0751,-355.5282 171.2211,-340.2079 137.7696,-327.6636"/>
<polygon fill="#000000" stroke="#000000" points="138.6916,-324.2714 128.0994,-324.0373 136.2337,-330.8257 138.6916,-324.2714"/>
</g>
<!-- 1 -->
<g id="node2" class="node">
<title>1</title>
<polygon fill="none" stroke="#000000" points="586.2233,-396 493.7767,-396 493.7767,-360 586.2233,-360 586.2233,-396"/>
<text text-anchor="middle" x="540" y="-373.8" font-family="Times,serif" font-size="14.00" fill="#000000">lwk_bindings</text>
</g>
<!-- 1&#45;&gt;6 -->
<g id="edge8" class="edge">
<title>1-&gt;6</title>
<path fill="none" stroke="#000000" d="M538.6068,-359.7623C536.7306,-335.201 533.3731,-291.2474 531.1659,-262.3541"/>
<polygon fill="#000000" stroke="#000000" points="534.6334,-261.794 530.3818,-252.0896 527.6538,-262.3272 534.6334,-261.794"/>
</g>
<!-- 1&#45;&gt;8 -->
<g id="edge10" class="edge">
<title>1-&gt;8</title>
<path fill="none" stroke="#000000" d="M498.8682,-359.8314C476.7364,-350.0553 449.2911,-337.9323 426.0523,-327.6673"/>
<polygon fill="#000000" stroke="#000000" points="427.273,-324.3803 416.7114,-323.5412 424.4446,-330.7834 427.273,-324.3803"/>
</g>
<!-- 1&#45;&gt;10 -->
<g id="edge7" class="edge">
<title>1-&gt;10</title>
<path fill="none" stroke="#000000" d="M586.1532,-371.1241C638.7489,-362.3786 720.2525,-345.7609 742,-324 771.2636,-294.7183 766,-275.3978 766,-234 766,-234 766,-234 766,-162 766,-120.6022 768.495,-103.8087 742,-72 727.1106,-54.1245 704.9482,-41.7859 684.1127,-33.467"/>
<polygon fill="#000000" stroke="#000000" points="685.2561,-30.1578 674.6639,-29.9222 682.7973,-36.7118 685.2561,-30.1578"/>
</g>
<!-- 12 -->
<g id="node13" class="node">
<title>12</title>
<polygon fill="none" stroke="#000000" points="576.6095,-108 487.3905,-108 487.3905,-72 576.6095,-72 576.6095,-108"/>
<text text-anchor="middle" x="532" y="-85.8" font-family="Times,serif" font-size="14.00" fill="#000000">lwk_test_util</text>
</g>
<!-- 1&#45;&gt;12 -->
<g id="edge9" class="edge">
<title>1-&gt;12</title>
<path fill="none" stroke="#000000" d="M549.0614,-359.6642C562.73,-329.7715 586.109,-268.588 577,-216 570.9103,-180.8428 555.9267,-142.5113 544.9151,-117.473"/>
<polygon fill="#000000" stroke="#000000" points="548.0597,-115.9316 540.77,-108.2432 541.6741,-118.7994 548.0597,-115.9316"/>
</g>
<!-- 2 -->
<g id="node3" class="node">
<title>2</title>
<polygon fill="none" stroke="#000000" points="252.993,-468 195.007,-468 195.007,-432 252.993,-432 252.993,-468"/>
<text text-anchor="middle" x="224" y="-445.8" font-family="Times,serif" font-size="14.00" fill="#000000">lwk_cli</text>
</g>
<!-- 2&#45;&gt;0 -->
<g id="edge11" class="edge">
<title>2-&gt;0</title>
<path fill="none" stroke="#000000" d="M236.1124,-431.8314C241.5281,-423.7079 248.0242,-413.9637 253.9921,-405.0118"/>
<polygon fill="#000000" stroke="#000000" points="257.0896,-406.6753 259.7245,-396.4133 251.2653,-402.7923 257.0896,-406.6753"/>
</g>
<!-- 9 -->
<g id="node10" class="node">
<title>9</title>
<polygon fill="none" stroke="#000000" points="366.5285,-36 265.4715,-36 265.4715,0 366.5285,0 366.5285,-36"/>
<text text-anchor="middle" x="316" y="-13.8" font-family="Times,serif" font-size="14.00" fill="#000000">lwk_containers</text>
</g>
<!-- 2&#45;&gt;9 -->
<g id="edge12" class="edge">
<title>2-&gt;9</title>
<path fill="none" stroke="#0000ff" d="M194.7159,-445.2706C133.998,-433.6199 0,-397.5382 0,-306 0,-306 0,-306 0,-162 0,-106.4483 163.7525,-56.2546 255.4984,-32.4919"/>
<polygon fill="#0000ff" stroke="#0000ff" points="256.4097,-35.8715 265.2291,-30.0006 254.6735,-29.0903 256.4097,-35.8715"/>
</g>
<!-- 2&#45;&gt;11 -->
<g id="edge13" class="edge">
<title>2-&gt;11</title>
<path fill="none" stroke="#000000" d="M205.7623,-431.7623C180.3354,-406.3354 134.1253,-360.1253 105.3569,-331.3569"/>
<polygon fill="#000000" stroke="#000000" points="107.6356,-328.6858 98.0896,-324.0896 102.6858,-333.6356 107.6356,-328.6858"/>
</g>
<!-- 2&#45;&gt;12 -->
<g id="edge14" class="edge">
<title>2-&gt;12</title>
<path fill="none" stroke="#0000ff" d="M253.0813,-435.0401C256.0439,-433.8766 259.0493,-432.8326 262,-432 333.6338,-411.7861 545.278,-451.387 595,-396 670.0313,-312.42 625.6405,-244.7528 576,-144 571.0586,-133.9708 563.9476,-124.1426 556.8786,-115.6782"/>
<polygon fill="#0000ff" stroke="#0000ff" points="559.4015,-113.2463 550.1861,-108.0188 554.1303,-117.8522 559.4015,-113.2463"/>
</g>
<!-- 3 -->
<g id="node4" class="node">
<title>3</title>
<polygon fill="none" stroke="#000000" points="335.4944,-468 270.5056,-468 270.5056,-432 335.4944,-432 335.4944,-468"/>
<text text-anchor="middle" x="303" y="-445.8" font-family="Times,serif" font-size="14.00" fill="#000000">lwk_hwi</text>
</g>
<!-- 4&#45;&gt;9 -->
<g id="edge16" class="edge">
<title>4-&gt;9</title>
<path fill="none" stroke="#000000" stroke-dasharray="1,5" d="M318.3136,-143.7623C314.4893,-119.201 311.7727,-75.2474 312.0778,-46.3541"/>
<polygon fill="#000000" stroke="#000000" points="315.5835,-46.1779 312.3467,-36.0896 308.5859,-45.9945 315.5835,-46.1779"/>
</g>
<!-- 4&#45;&gt;9 -->
<g id="edge17" class="edge">
<title>4-&gt;9</title>
<path fill="none" stroke="#0000ff" d="M327.66,-143.7623C328.7553,-119.201 326.5881,-75.2474 323.0726,-46.3541"/>
<polygon fill="#0000ff" stroke="#0000ff" points="326.4911,-45.5205 321.6633,-36.0896 319.5562,-46.4728 326.4911,-45.5205"/>
</g>
<!-- 4&#45;&gt;10 -->
<g id="edge15" class="edge">
<title>4-&gt;10</title>
<path fill="none" stroke="#000000" d="M357.7686,-149.6575C381.7684,-140.0983 414.1884,-125.5464 440,-108 459.2399,-94.921 458.1904,-84.199 478,-72 506.9024,-54.2015 542.5367,-41.0633 571.8203,-32.205"/>
<polygon fill="#000000" stroke="#000000" points="572.8811,-35.5414 581.4889,-29.3644 570.9078,-28.8252 572.8811,-35.5414"/>
</g>
<!-- 4&#45;&gt;12 -->
<g id="edge18" class="edge">
<title>4-&gt;12</title>
<path fill="none" stroke="#0000ff" d="M357.8817,-150.2717C390.2176,-139.0785 439.4813,-122.0257 477.3656,-108.9119"/>
<polygon fill="#0000ff" stroke="#0000ff" points="478.9241,-112.0763 487.2291,-105.4976 476.6343,-105.4613 478.9241,-112.0763"/>
</g>
<!-- 5 -->
<g id="node6" class="node">
<title>5</title>
<polygon fill="none" stroke="#000000" points="431.4776,-108 352.5224,-108 352.5224,-72 431.4776,-72 431.4776,-108"/>
<text text-anchor="middle" x="392" y="-85.8" font-family="Times,serif" font-size="14.00" fill="#000000">lwk_ledger</text>
</g>
<!-- 5&#45;&gt;9 -->
<g id="edge20" class="edge">
<title>5-&gt;9</title>
<path fill="none" stroke="#000000" stroke-dasharray="1,5" d="M366.8696,-71.8314C357.0153,-63.2848 345.9198,-52.9443 336.549,-43.6198"/>
<polygon fill="#000000" stroke="#000000" points="338.968,-41.088 329.4602,-36.4133 333.9776,-45.9968 338.968,-41.088"/>
</g>
<!-- 5&#45;&gt;9 -->
<g id="edge21" class="edge">
<title>5-&gt;9</title>
<path fill="none" stroke="#0000ff" d="M378.7744,-71.8314C370.3595,-63.0485 359.2561,-52.3712 348.6829,-42.8489"/>
<polygon fill="#0000ff" stroke="#0000ff" points="350.933,-40.1664 341.1237,-36.1628 346.2953,-45.4097 350.933,-40.1664"/>
</g>
<!-- 5&#45;&gt;10 -->
<g id="edge19" class="edge">
<title>5-&gt;10</title>
<path fill="none" stroke="#000000" d="M431.5916,-76.3587C436.1051,-74.8616 440.6465,-73.381 445,-72 487.1374,-58.6336 535.0734,-44.5283 571.3113,-34.0868"/>
<polygon fill="#000000" stroke="#000000" points="572.5634,-37.3687 581.2075,-31.2426 570.6298,-30.6411 572.5634,-37.3687"/>
</g>
<!-- 6&#45;&gt;4 -->
<g id="edge23" class="edge">
<title>6-&gt;4</title>
<path fill="none" stroke="#000000" stroke-dasharray="1,5" d="M489.4739,-220.1177C454.5911,-207.8661 403.8211,-190.0347 367.7311,-177.3592"/>
<polygon fill="#000000" stroke="#000000" points="368.5614,-173.9413 357.9666,-173.9297 366.2417,-180.5458 368.5614,-173.9413"/>
</g>
<!-- 6&#45;&gt;5 -->
<g id="edge24" class="edge">
<title>6-&gt;5</title>
<path fill="none" stroke="#000000" stroke-dasharray="1,5" d="M511.6489,-215.7623C487.458,-190.3354 443.4942,-144.1253 416.1242,-115.3569"/>
<polygon fill="#000000" stroke="#000000" points="418.6388,-112.9221 409.2103,-108.0896 413.5673,-117.7471 418.6388,-112.9221"/>
</g>
<!-- 6&#45;&gt;10 -->
<g id="edge22" class="edge">
<title>6-&gt;10</title>
<path fill="none" stroke="#000000" d="M546.822,-215.7809C568.0912,-192.7887 602.8082,-151.0226 619,-108 626.4093,-88.3129 628.5288,-64.5862 628.8657,-46.4379"/>
<polygon fill="#000000" stroke="#000000" points="632.366,-46.2131 628.8807,-36.2079 625.366,-46.2028 632.366,-46.2131"/>
</g>
<!-- 6&#45;&gt;12 -->
<g id="edge25" class="edge">
<title>6-&gt;12</title>
<path fill="none" stroke="#0000ff" d="M529.38,-215.7623C529.8916,-191.201 530.8073,-147.2474 531.4093,-118.3541"/>
<polygon fill="#0000ff" stroke="#0000ff" points="534.914,-118.1604 531.6231,-108.0896 527.9155,-118.0145 534.914,-118.1604"/>
</g>
<!-- 8&#45;&gt;4 -->
<g id="edge28" class="edge">
<title>8-&gt;4</title>
<path fill="none" stroke="#0000ff" d="M370.2875,-287.7623C361.168,-262.9846 344.7846,-218.4714 334.1561,-189.5939"/>
<polygon fill="#0000ff" stroke="#0000ff" points="337.3967,-188.2652 330.658,-180.0896 330.8275,-190.6831 337.3967,-188.2652"/>
</g>
<!-- 8&#45;&gt;5 -->
<g id="edge29" class="edge">
<title>8-&gt;5</title>
<path fill="none" stroke="#0000ff" d="M378.2531,-287.9555C380.8671,-250.3144 386.9176,-163.1867 390.0469,-118.1246"/>
<polygon fill="#0000ff" stroke="#0000ff" points="393.5386,-118.3635 390.7399,-108.1451 386.5555,-117.8785 393.5386,-118.3635"/>
</g>
<!-- 8&#45;&gt;6 -->
<g id="edge30" class="edge">
<title>8-&gt;6</title>
<path fill="none" stroke="#0000ff" d="M415.356,-287.8314C435.5044,-278.2874 460.3752,-266.5065 481.7083,-256.4013"/>
<polygon fill="#0000ff" stroke="#0000ff" points="483.3807,-259.482 490.9198,-252.038 480.3841,-253.1558 483.3807,-259.482"/>
</g>
<!-- 8&#45;&gt;9 -->
<g id="edge27" class="edge">
<title>8-&gt;9</title>
<path fill="none" stroke="#0000ff" d="M356.8393,-287.8919C333.3798,-265.3247 295.952,-224.2959 281,-180 265.4881,-134.0454 285.5781,-78.3726 301.1113,-45.7032"/>
<polygon fill="#0000ff" stroke="#0000ff" points="304.4464,-46.8546 305.7411,-36.3392 298.1715,-43.752 304.4464,-46.8546"/>
</g>
<!-- 8&#45;&gt;10 -->
<g id="edge26" class="edge">
<title>8-&gt;10</title>
<path fill="none" stroke="#000000" d="M398.0792,-287.8482C445.0944,-247.0798 556.7018,-148.649 586,-108 599.8446,-88.7917 610.9213,-64.2944 618.216,-45.709"/>
<polygon fill="#000000" stroke="#000000" points="621.5008,-46.9175 621.7767,-36.3263 614.9563,-44.4338 621.5008,-46.9175"/>
</g>
<!-- 8&#45;&gt;12 -->
<g id="edge31" class="edge">
<title>8-&gt;12</title>
<path fill="none" stroke="#0000ff" d="M384.2755,-287.8125C400.3056,-247.9874 438.0355,-155.6811 448,-144 458.3373,-131.8819 472.0739,-121.5067 485.4385,-113.1841"/>
<polygon fill="#0000ff" stroke="#0000ff" points="487.3237,-116.1352 494.1277,-108.0138 483.7442,-110.1195 487.3237,-116.1352"/>
</g>
<!-- 12&#45;&gt;9 -->
<g id="edge33" class="edge">
<title>12-&gt;9</title>
<path fill="none" stroke="#000000" d="M487.2447,-75.0816C455.1667,-64.3889 411.5955,-49.8652 376.4318,-38.1439"/>
<polygon fill="#000000" stroke="#000000" points="377.3469,-34.7597 366.7533,-34.9178 375.1333,-41.4005 377.3469,-34.7597"/>
</g>
<!-- 12&#45;&gt;10 -->
<g id="edge32" class="edge">
<title>12-&gt;10</title>
<path fill="none" stroke="#000000" d="M556.2249,-71.8314C568.1628,-62.8779 582.7256,-51.9558 595.606,-42.2955"/>
<polygon fill="#000000" stroke="#000000" points="597.8829,-44.9629 603.7829,-36.1628 593.6829,-39.3629 597.8829,-44.9629"/>
</g>
<!-- 13 -->
<g id="node14" class="node">
<title>13</title>
<polygon fill="none" stroke="#000000" points="436.1544,-396 359.8456,-396 359.8456,-360 436.1544,-360 436.1544,-396"/>
<text text-anchor="middle" x="398" y="-373.8" font-family="Times,serif" font-size="14.00" fill="#000000">lwk_wasm</text>
</g>
<!-- 13&#45;&gt;4 -->
<g id="edge35" class="edge">
<title>13-&gt;4</title>
<path fill="none" stroke="#000000" d="M363.6476,-359.9079C350.3628,-350.9967 336.5601,-338.9274 329,-324 307.4328,-281.4159 312.2534,-224.1324 317.9601,-190.3302"/>
<polygon fill="#000000" stroke="#000000" points="321.4513,-190.6962 319.8118,-180.229 314.566,-189.434 321.4513,-190.6962"/>
</g>
<!-- 13&#45;&gt;6 -->
<g id="edge36" class="edge">
<title>13-&gt;6</title>
<path fill="none" stroke="#000000" d="M419.928,-359.8484C431.6687,-349.7456 446.1172,-336.6799 458,-324 476.9146,-303.8165 496.2192,-279.0203 509.915,-260.5694"/>
<polygon fill="#000000" stroke="#000000" points="512.8732,-262.4545 515.9761,-252.3242 507.2331,-258.3084 512.8732,-262.4545"/>
</g>
<!-- 13&#45;&gt;8 -->
<g id="edge37" class="edge">
<title>13-&gt;8</title>
<path fill="none" stroke="#000000" d="M392.7008,-359.8314C390.4302,-352.0463 387.7254,-342.7729 385.206,-334.1347"/>
<polygon fill="#000000" stroke="#000000" points="388.5306,-333.0332 382.3705,-324.4133 381.8106,-334.9933 388.5306,-333.0332"/>
</g>
<!-- 13&#45;&gt;10 -->
<g id="edge34" class="edge">
<title>13-&gt;10</title>
<path fill="none" stroke="#000000" d="M436.1776,-369.8357C523.0438,-350.1602 728,-297.0556 728,-234 728,-234 728,-234 728,-162 728,-120.6022 727.6075,-106.0068 704,-72 695.7556,-60.1238 684.0123,-49.9613 672.2153,-41.7623"/>
<polygon fill="#000000" stroke="#000000" points="673.9441,-38.7103 663.665,-36.1428 670.0994,-44.56 673.9441,-38.7103"/>
</g>
</g>
</svg>